<mxfile host="app.diagrams.net" modified="2023-03-01T15:32:55.878Z" agent="5.0 (Windows NT 10.0; Win64; x64) AppleWebKit/537.36 (KHTML, like Gecko) Chrome/110.0.0.0 Safari/537.36 Edg/110.0.1587.57" etag="9HvuP9J6t0sLrUFPmqxj" version="20.8.23" type="github">
  <diagram name="第 1 页" id="jIALP_Qu_OMVzzjKfbdN">
    <mxGraphModel dx="1434" dy="756" grid="0" gridSize="10" guides="1" tooltips="1" connect="1" arrows="1" fold="1" page="0" pageScale="1" pageWidth="3300" pageHeight="4681" math="0" shadow="0">
      <root>
        <mxCell id="0" />
        <mxCell id="1" parent="0" />
        <mxCell id="egSyH-RiIAFcxhQm0xI7-1" value="" style="rounded=0;whiteSpace=wrap;html=1;fillColor=#dae8fc;strokeColor=#6c8ebf;" vertex="1" parent="1">
          <mxGeometry x="470" y="280" width="410" height="20" as="geometry" />
        </mxCell>
        <mxCell id="egSyH-RiIAFcxhQm0xI7-3" value="" style="endArrow=classic;startArrow=classic;html=1;rounded=0;" edge="1" parent="1">
          <mxGeometry width="50" height="50" relative="1" as="geometry">
            <mxPoint x="555" y="289.5" as="sourcePoint" />
            <mxPoint x="795" y="289.5" as="targetPoint" />
          </mxGeometry>
        </mxCell>
        <mxCell id="egSyH-RiIAFcxhQm0xI7-4" value="Actor" style="shape=umlActor;verticalLabelPosition=bottom;verticalAlign=top;html=1;outlineConnect=0;" vertex="1" parent="1">
          <mxGeometry x="377" y="260" width="30" height="60" as="geometry" />
        </mxCell>
        <mxCell id="egSyH-RiIAFcxhQm0xI7-5" value="Actor" style="shape=umlActor;verticalLabelPosition=bottom;verticalAlign=top;html=1;outlineConnect=0;" vertex="1" parent="1">
          <mxGeometry x="963" y="260" width="30" height="60" as="geometry" />
        </mxCell>
        <mxCell id="egSyH-RiIAFcxhQm0xI7-6" value="Pipe" style="text;html=1;strokeColor=none;fillColor=none;align=center;verticalAlign=middle;whiteSpace=wrap;rounded=0;fontSize=20;" vertex="1" parent="1">
          <mxGeometry x="645" y="240" width="60" height="30" as="geometry" />
        </mxCell>
      </root>
    </mxGraphModel>
  </diagram>
</mxfile>
